<svg xmlns="http://www.w3.org/2000/svg" xmlns:xlink="http://www.w3.org/1999/xlink" width="1210pt" height="632pt" viewBox="0.00 0.00 1210.00 632.00">
<g id="graph0" class="graph" transform="scale(1 1) rotate(0) translate(18 614)">
<title>lowballr_recruiter_view</title>
<polygon fill="white" stroke="none" points="-18,18 -18,-614 1191.81,-614 1191.81,18 -18,18"/>
<g id="clust1" class="cluster">
<title>cluster_client</title>
<path fill="none" stroke="#dadce0" d="M523.52,-503C523.52,-503 1153.81,-503 1153.81,-503 1159.81,-503 1165.81,-509 1165.81,-515 1165.81,-515 1165.81,-576 1165.81,-576 1165.81,-582 1159.81,-588 1153.81,-588 1153.81,-588 523.52,-588 523.52,-588 517.52,-588 511.52,-582 511.52,-576 511.52,-576 511.52,-515 511.52,-515 511.52,-509 517.52,-503 523.52,-503"/>
<text xml:space="preserve" text-anchor="middle" x="838.66" y="-571.4" font-family="Times,serif" font-size="14.00">Client (React Native)</text>
</g>
<g id="clust2" class="cluster">
<title>cluster_data_access</title>
<path fill="none" stroke="#dadce0" d="M20,-206C20,-206 147.98,-206 147.98,-206 153.98,-206 159.98,-212 159.98,-218 159.98,-218 159.98,-279 159.98,-279 159.98,-285 153.98,-291 147.98,-291 147.98,-291 20,-291 20,-291 14,-291 8,-285 8,-279 8,-279 8,-218 8,-218 8,-212 14,-206 20,-206"/>
<text xml:space="preserve" text-anchor="middle" x="83.99" y="-274.4" font-family="Times,serif" font-size="14.00">Data Access Boundary</text>
</g>
<g id="clust3" class="cluster">
<title>cluster_backend</title>
<path fill="none" stroke="#dadce0" d="M300.98,-104C300.98,-104 702.35,-104 702.35,-104 708.35,-104 714.35,-110 714.35,-116 714.35,-116 714.35,-483 714.35,-483 714.35,-489 708.35,-495 702.35,-495 702.35,-495 300.98,-495 300.98,-495 294.98,-495 288.98,-489 288.98,-483 288.98,-483 288.98,-116 288.98,-116 288.98,-110 294.98,-104 300.98,-104"/>
<text xml:space="preserve" text-anchor="middle" x="501.67" y="-478.4" font-family="Times,serif" font-size="14.00">Backend (Supabase + PostgreSQL)</text>
</g>
<!-- ui -->
<g id="node1" class="node">
<title>ui</title>
<path fill="#e8f0fe" stroke="#9aa0a6" d="M701.81,-554.84C701.81,-554.84 531.52,-554.84 531.52,-554.84 525.52,-554.84 519.52,-548.84 519.52,-542.84 519.52,-542.84 519.52,-523.16 519.52,-523.16 519.52,-517.16 525.52,-511.16 531.52,-511.16 531.52,-511.16 701.81,-511.16 701.81,-511.16 707.81,-511.16 713.81,-517.16 713.81,-523.16 713.81,-523.16 713.81,-542.84 713.81,-542.84 713.81,-548.84 707.81,-554.84 701.81,-554.84"/>
<text xml:space="preserve" text-anchor="middle" x="616.66" y="-536.3" font-family="Inter" font-size="11.00">Screens / UI</text>
<text xml:space="preserve" text-anchor="middle" x="616.66" y="-523.1" font-family="Inter" font-size="11.00">Swipe • Listings • Podium • Profile</text>
</g>
<!-- domain -->
<g id="node2" class="node">
<title>domain</title>
<path fill="#e8f0fe" stroke="#9aa0a6" d="M959.52,-554.84C959.52,-554.84 797.81,-554.84 797.81,-554.84 791.81,-554.84 785.81,-548.84 785.81,-542.84 785.81,-542.84 785.81,-523.16 785.81,-523.16 785.81,-517.16 791.81,-511.16 797.81,-511.16 797.81,-511.16 959.52,-511.16 959.52,-511.16 965.52,-511.16 971.52,-517.16 971.52,-523.16 971.52,-523.16 971.52,-542.84 971.52,-542.84 971.52,-548.84 965.52,-554.84 959.52,-554.84"/>
<text xml:space="preserve" text-anchor="middle" x="878.66" y="-536.3" font-family="Inter" font-size="11.00">Domain Modules</text>
<text xml:space="preserve" text-anchor="middle" x="878.66" y="-523.1" font-family="Inter" font-size="11.00">(auth • listings • swipes • reports)</text>
</g>
<!-- ui&#45;&gt;domain -->
<g id="edge1" class="edge">
<title>ui-&gt;domain</title>
<path fill="none" stroke="#5f6368" stroke-width="1.1" d="M714.11,-533C734.68,-533 756.47,-533 777.19,-533"/>
<polygon fill="#5f6368" stroke="#5f6368" stroke-width="1.1" points="777.02,-535.45 784.02,-533 777.02,-530.55 777.02,-535.45"/>
<text xml:space="preserve" text-anchor="middle" x="769.39" y="-524" font-family="Inter" font-size="10.00">user actions</text>
</g>
<!-- state -->
<g id="node3" class="node">
<title>state</title>
<path fill="#e8f0fe" stroke="#9aa0a6" d="M1145.81,-554.84C1145.81,-554.84 1055.52,-554.84 1055.52,-554.84 1049.52,-554.84 1043.52,-548.84 1043.52,-542.84 1043.52,-542.84 1043.52,-523.16 1043.52,-523.16 1043.52,-517.16 1049.52,-511.16 1055.52,-511.16 1055.52,-511.16 1145.81,-511.16 1145.81,-511.16 1151.81,-511.16 1157.81,-517.16 1157.81,-523.16 1157.81,-523.16 1157.81,-542.84 1157.81,-542.84 1157.81,-548.84 1151.81,-554.84 1145.81,-554.84"/>
<text xml:space="preserve" text-anchor="middle" x="1100.66" y="-536.3" font-family="Inter" font-size="11.00">State + Fetch Cache</text>
<text xml:space="preserve" text-anchor="middle" x="1100.66" y="-523.1" font-family="Inter" font-size="11.00">(TanStack Query)</text>
</g>
<!-- domain&#45;&gt;state -->
<g id="edge2" class="edge">
<title>domain-&gt;state</title>
<path fill="none" stroke="#5f6368" stroke-width="1.1" d="M972.01,-511.5C993.11,-510.9 1015.1,-511.38 1034.76,-512.96"/>
<polygon fill="#5f6368" stroke="#5f6368" stroke-width="1.1" points="1034.48,-515.4 1041.67,-513.59 1034.92,-510.52 1034.48,-515.4"/>
<text xml:space="preserve" text-anchor="middle" x="1041.43" y="-503.23" font-family="Inter" font-size="10.00">queries / mutations</text>
</g>
<!-- state&#45;&gt;domain -->
<g id="edge3" class="edge">
<title>state-&gt;domain</title>
<path fill="none" stroke="#5f6368" stroke-width="1.1" d="M1043.33,-552.26C1024.17,-554.19 1002.13,-555 980.56,-554.68"/>
<polygon fill="#5f6368" stroke="#5f6368" stroke-width="1.1" points="980.72,-552.24 973.67,-554.53 980.62,-557.14 980.72,-552.24"/>
<text xml:space="preserve" text-anchor="middle" x="983.76" y="-556.47" font-family="Inter" font-size="10.00">cached results</text>
</g>
<!-- clientapi -->
<g id="node4" class="node">
<title>clientapi</title>
<path fill="#fef7e0" stroke="#9aa0a6" d="M139.98,-257.84C139.98,-257.84 28,-257.84 28,-257.84 22,-257.84 16,-251.84 16,-245.84 16,-245.84 16,-226.16 16,-226.16 16,-220.16 22,-214.16 28,-214.16 28,-214.16 139.98,-214.16 139.98,-214.16 145.98,-214.16 151.98,-220.16 151.98,-226.16 151.98,-226.16 151.98,-245.84 151.98,-245.84 151.98,-251.84 145.98,-257.84 139.98,-257.84"/>
<text xml:space="preserve" text-anchor="middle" x="83.99" y="-239.3" font-family="Inter" font-size="11.00">Data Clients</text>
<text xml:space="preserve" text-anchor="middle" x="83.99" y="-226.1" font-family="Inter" font-size="11.00">(authClient + dataClient)</text>
</g>
<!-- state&#45;&gt;clientapi -->
<g id="edge4" class="edge">
<title>state-&gt;clientapi</title>
<path fill="none" stroke="#5f6368" stroke-width="1.1" d="M1087.84,-510.85C1056.11,-451.44 971.52,-293 971.52,-293 971.52,-293 617.66,0 617.66,0 371.25,0 371.25,0 371.25,0 371.25,0 194.04,-146.1 118.48,-208.39"/>
<polygon fill="#5f6368" stroke="#5f6368" stroke-width="1.1" points="117.05,-206.4 113.21,-212.74 120.17,-210.18 117.05,-206.4"/>
<text xml:space="preserve" text-anchor="middle" x="630.03" y="-33.21" font-family="Inter" font-size="10.00">single IO boundary</text>
</g>
<!-- auth -->
<g id="node5" class="node">
<title>auth</title>
<path fill="#fde7e9" stroke="#9aa0a6" d="M415.42,-461.84C415.42,-461.84 329.08,-461.84 329.08,-461.84 323.08,-461.84 317.08,-455.84 317.08,-449.84 317.08,-449.84 317.08,-430.16 317.08,-430.16 317.08,-424.16 323.08,-418.16 329.08,-418.16 329.08,-418.16 415.42,-418.16 415.42,-418.16 421.42,-418.16 427.42,-424.16 427.42,-430.16 427.42,-430.16 427.42,-449.84 427.42,-449.84 427.42,-455.84 421.42,-461.84 415.42,-461.84"/>
<text xml:space="preserve" text-anchor="middle" x="372.25" y="-443.3" font-family="Inter" font-size="11.00">Auth</text>
<text xml:space="preserve" text-anchor="middle" x="372.25" y="-430.1" font-family="Inter" font-size="11.00">(identity + session)</text>
</g>
<!-- clientapi&#45;&gt;auth -->
<g id="edge5" class="edge">
<title>clientapi-&gt;auth</title>
<path fill="none" stroke="#5f6368" stroke-width="1.1" d="M114.65,-258.25C171.23,-300.68 288.98,-389 288.98,-389 288.98,-389 308.22,-400.93 328.09,-413.24"/>
<polygon fill="#5f6368" stroke="#5f6368" stroke-width="1.1" points="326.75,-415.3 333.99,-416.9 329.33,-411.13 326.75,-415.3"/>
<text xml:space="preserve" text-anchor="middle" x="188" y="-328.43" font-family="Inter" font-size="10.00">sign-in / session</text>
</g>
<!-- db -->
<g id="node6" class="node">
<title>db</title>
<path fill="#fde7e9" stroke="#9aa0a6" d="M419.02,-359.84C419.02,-359.84 325.49,-359.84 325.49,-359.84 319.49,-359.84 313.49,-353.84 313.49,-347.84 313.49,-347.84 313.49,-328.16 313.49,-328.16 313.49,-322.16 319.49,-316.16 325.49,-316.16 325.49,-316.16 419.02,-316.16 419.02,-316.16 425.02,-316.16 431.02,-322.16 431.02,-328.16 431.02,-328.16 431.02,-347.84 431.02,-347.84 431.02,-353.84 425.02,-359.84 419.02,-359.84"/>
<text xml:space="preserve" text-anchor="middle" x="372.25" y="-341.3" font-family="Inter" font-size="11.00">PostgreSQL</text>
<text xml:space="preserve" text-anchor="middle" x="372.25" y="-328.1" font-family="Inter" font-size="11.00">(core relational data)</text>
</g>
<!-- clientapi&#45;&gt;db -->
<g id="edge6" class="edge">
<title>clientapi-&gt;db</title>
<path fill="none" stroke="#5f6368" stroke-width="1.1" d="M147.46,-258.26C194.11,-274.88 257.74,-297.55 305.23,-314.48"/>
<polygon fill="#5f6368" stroke="#5f6368" stroke-width="1.1" points="304.32,-316.75 311.74,-316.79 305.96,-312.14 304.32,-316.75"/>
<text xml:space="preserve" text-anchor="middle" x="212.45" y="-277.37" font-family="Inter" font-size="10.00">CRUD</text>
</g>
<!-- storage -->
<g id="node8" class="node">
<title>storage</title>
<path fill="#fde7e9" stroke="#9aa0a6" d="M403.92,-257.84C403.92,-257.84 340.59,-257.84 340.59,-257.84 334.59,-257.84 328.59,-251.84 328.59,-245.84 328.59,-245.84 328.59,-226.16 328.59,-226.16 328.59,-220.16 334.59,-214.16 340.59,-214.16 340.59,-214.16 403.92,-214.16 403.92,-214.16 409.92,-214.16 415.92,-220.16 415.92,-226.16 415.92,-226.16 415.92,-245.84 415.92,-245.84 415.92,-251.84 409.92,-257.84 403.92,-257.84"/>
<text xml:space="preserve" text-anchor="middle" x="372.25" y="-239.3" font-family="Inter" font-size="11.00">Storage</text>
<text xml:space="preserve" text-anchor="middle" x="372.25" y="-226.1" font-family="Inter" font-size="11.00">listing images</text>
</g>
<!-- clientapi&#45;&gt;storage -->
<g id="edge11" class="edge">
<title>clientapi-&gt;storage</title>
<path fill="none" stroke="#5f6368" stroke-width="1.1" d="M152.47,-236C203.66,-236 272.98,-236 319.76,-236"/>
<polygon fill="#5f6368" stroke="#5f6368" stroke-width="1.1" points="319.56,-238.45 326.56,-236 319.56,-233.55 319.56,-238.45"/>
<text xml:space="preserve" text-anchor="middle" x="279.02" y="-227" font-family="Inter" font-size="10.00">upload / fetch images</text>
</g>
<!-- events -->
<g id="node9" class="node">
<title>events</title>
<path fill="#e6f4ea" stroke="#9aa0a6" d="M435.52,-155.84C435.52,-155.84 308.98,-155.84 308.98,-155.84 302.98,-155.84 296.98,-149.84 296.98,-143.84 296.98,-143.84 296.98,-124.16 296.98,-124.16 296.98,-118.16 302.98,-112.16 308.98,-112.16 308.98,-112.16 435.52,-112.16 435.52,-112.16 441.52,-112.16 447.52,-118.16 447.52,-124.16 447.52,-124.16 447.52,-143.84 447.52,-143.84 447.52,-149.84 441.52,-155.84 435.52,-155.84"/>
<text xml:space="preserve" text-anchor="middle" x="372.25" y="-137.3" font-family="Inter" font-size="11.00">Event Ledger (append-only)</text>
<text xml:space="preserve" text-anchor="middle" x="372.25" y="-124.1" font-family="Inter" font-size="11.00">swipe events</text>
</g>
<!-- clientapi&#45;&gt;events -->
<g id="edge8" class="edge">
<title>clientapi-&gt;events</title>
<path fill="none" stroke="#5f6368" stroke-width="1.1" d="M147.46,-213.74C192.71,-197.62 253.94,-175.8 300.91,-159.06"/>
<polygon fill="#5f6368" stroke="#5f6368" stroke-width="1.1" points="301.58,-161.43 307.35,-156.77 299.93,-156.81 301.58,-161.43"/>
<text xml:space="preserve" text-anchor="middle" x="195.72" y="-177.4" font-family="Inter" font-size="10.00">append events</text>
</g>
<!-- rls -->
<g id="node7" class="node">
<title>rls</title>
<path fill="#fde7e9" stroke="#9aa0a6" d="M668.49,-359.84C668.49,-359.84 564.84,-359.84 564.84,-359.84 558.84,-359.84 552.84,-353.84 552.84,-347.84 552.84,-347.84 552.84,-328.16 552.84,-328.16 552.84,-322.16 558.84,-316.16 564.84,-316.16 564.84,-316.16 668.49,-316.16 668.49,-316.16 674.49,-316.16 680.49,-322.16 680.49,-328.16 680.49,-328.16 680.49,-347.84 680.49,-347.84 680.49,-353.84 674.49,-359.84 668.49,-359.84"/>
<text xml:space="preserve" text-anchor="middle" x="616.66" y="-341.3" font-family="Inter" font-size="11.00">Row Level Security</text>
<text xml:space="preserve" text-anchor="middle" x="616.66" y="-328.1" font-family="Inter" font-size="11.00">(multi-tenant isolation)</text>
</g>
<!-- db&#45;&gt;rls -->
<g id="edge7" class="edge">
<title>db-&gt;rls</title>
<path fill="none" stroke="#5f6368" stroke-width="1.1" stroke-dasharray="5,2" d="M431.32,-338C467.87,-338 515.06,-338 552.55,-338"/>
</g>
<!-- derived -->
<g id="node10" class="node">
<title>derived</title>
<path fill="#e6f4ea" stroke="#9aa0a6" d="M694.35,-206.84C694.35,-206.84 538.97,-206.84 538.97,-206.84 532.97,-206.84 526.97,-200.84 526.97,-194.84 526.97,-194.84 526.97,-175.16 526.97,-175.16 526.97,-169.16 532.97,-163.16 538.97,-163.16 538.97,-163.16 694.35,-163.16 694.35,-163.16 700.35,-163.16 706.35,-169.16 706.35,-175.16 706.35,-175.16 706.35,-194.84 706.35,-194.84 706.35,-200.84 700.35,-206.84 694.35,-206.84"/>
<text xml:space="preserve" text-anchor="middle" x="616.66" y="-188.3" font-family="Inter" font-size="11.00">Derived Read Models</text>
<text xml:space="preserve" text-anchor="middle" x="616.66" y="-175.1" font-family="Inter" font-size="11.00">podium standings + daily analytics</text>
</g>
<!-- events&#45;&gt;derived -->
<g id="edge9" class="edge">
<title>events-&gt;derived</title>
<path fill="none" stroke="#5f6368" stroke-width="1.1" d="M447.96,-149.72C470.24,-154.4 494.98,-159.61 518.47,-164.55"/>
<polygon fill="#5f6368" stroke="#5f6368" stroke-width="1.1" points="517.74,-166.9 525.09,-165.95 518.75,-162.11 517.74,-166.9"/>
<text xml:space="preserve" text-anchor="middle" x="502.65" y="-148.14" font-family="Inter" font-size="10.00">aggregate</text>
</g>
<!-- derived&#45;&gt;state -->
<g id="edge10" class="edge">
<title>derived-&gt;state</title>
<path fill="none" stroke="#5f6368" stroke-width="1.1" stroke-dasharray="5,2" d="M648.55,-207.3C733.29,-268.49 969.3,-438.88 1061.79,-505.66"/>
<polygon fill="#5f6368" stroke="#5f6368" stroke-width="1.1" points="1060.26,-507.58 1067.37,-509.69 1063.13,-503.6 1060.26,-507.58"/>
<text xml:space="preserve" text-anchor="middle" x="812.55" y="-347.48" font-family="Inter" font-size="10.00">read models (fast UI)</text>
</g>
</g>
</svg>